<svg xmlns="http://www.w3.org/2000/svg" xmlns:xlink="http://www.w3.org/1999/xlink" preserveAspectRatio="xMidYMid" width="72" height="85" viewBox="0 0 72 85">
  <defs>
    <style>

      .cls-2 {
        fill: #ffffff;
      }
    </style>
  </defs>
  <path d="M71.999,85.000 C71.999,85.000 67.662,85.000 67.662,85.000 C67.662,85.000 4.337,85.000 4.337,85.000 C4.337,85.000 0.001,85.000 0.001,85.000 C0.001,85.000 0.001,85.000 0.001,85.000 C0.001,85.000 0.001,42.092 0.001,42.092 C0.001,42.092 0.001,35.965 0.001,35.965 C0.001,35.965 0.955,35.012 0.955,35.012 C0.955,35.012 32.933,3.063 32.933,3.063 C32.933,3.063 36.000,-0.000 36.000,-0.000 C36.000,-0.000 39.066,3.063 39.066,3.063 C39.066,3.063 71.044,35.012 71.044,35.012 C71.044,35.012 71.999,35.965 71.999,35.965 C71.999,35.965 71.999,42.092 71.999,42.092 C71.999,42.092 71.999,80.668 71.999,80.668 C71.999,80.668 71.999,80.668 71.999,80.668 C71.999,80.668 71.999,85.000 71.999,85.000 C71.999,85.000 71.999,85.000 71.999,85.000 ZM67.662,37.760 C67.662,37.760 36.000,6.127 36.000,6.127 C36.000,6.127 4.337,37.760 4.337,37.760 C4.337,37.760 4.337,80.668 4.337,80.668 C4.337,80.668 67.662,80.668 67.662,80.668 C67.662,80.668 67.662,37.760 67.662,37.760 ZM52.178,45.134 C52.178,45.134 19.822,45.134 19.822,45.134 C19.822,45.134 19.822,40.802 19.822,40.802 C19.822,40.802 52.178,40.802 52.178,40.802 C52.178,40.802 52.178,45.134 52.178,45.134 ZM52.178,55.798 C52.178,55.798 19.822,55.798 19.822,55.798 C19.822,55.798 19.822,51.466 19.822,51.466 C19.822,51.466 52.178,51.466 52.178,51.466 C52.178,51.466 52.178,55.798 52.178,55.798 ZM52.178,66.463 C52.178,66.463 19.822,66.463 19.822,66.463 C19.822,66.463 19.822,62.130 19.822,62.130 C19.822,62.130 52.178,62.130 52.178,62.130 C52.178,62.130 52.178,66.463 52.178,66.463 Z" id="path-1" class="cls-2" fill-rule="evenodd"/>
</svg>
