<?xml version="1.0" encoding="utf-8"?>
<!-- Generator: Adobe Illustrator 24.0.2, SVG Export Plug-In . SVG Version: 6.00 Build 0)  -->
<svg version="1.1" id="_x30_9__x2014__Music" xmlns="http://www.w3.org/2000/svg" xmlns:xlink="http://www.w3.org/1999/xlink"
	 x="0px" y="0px" viewBox="0 0 48 48" style="enable-background:new 0 0 48 48;" xml:space="preserve">
<style type="text/css">
	.st0{fill:#8080807F;}
</style>
<g id="play-button">
	<path class="st0" d="M41,44H7c-1.65,0-3-1.35-3-3V7c0-1.65,1.35-3,3-3h34c1.65,0,3,1.35,3,3v34C44,42.65,42.65,44,41,44z M7,6
		C6.45,6,6,6.45,6,7v34c0,0.55,0.45,1,1,1h34c0.55,0,1-0.45,1-1V7c0-0.55-0.45-1-1-1H7z M18,36c-0.15,0-0.3-0.03-0.44-0.1
		C17.22,35.73,17,35.38,17,35V13c0-0.38,0.22-0.73,0.56-0.9c0.35-0.17,0.75-0.12,1.06,0.11l14,11C32.86,23.4,33,23.69,33,24
		s-0.14,0.6-0.38,0.79l-14,11C18.44,35.93,18.22,36,18,36z M19,15.06v17.88L30.38,24L19,15.06z"/>
</g>
</svg>
