<?xml version="1.0" encoding="utf-8"?>
<!-- Generator: Adobe Illustrator 22.1.0, SVG Export Plug-In . SVG Version: 6.00 Build 0)  -->
<svg version="1.1" id="Режим_изоляции"
	 xmlns="http://www.w3.org/2000/svg" xmlns:xlink="http://www.w3.org/1999/xlink" x="0px" y="0px" viewBox="0 0 126.5 81"
	 style="enable-background:new 0 0 126.5 81;" xml:space="preserve">
<style type="text/css">
	.st0{fill:#FFFFFF;}
</style>
<path class="st0" d="M41.5,32.4c1.9,0,3,1.1,3,3c0,2.7-1.5,4.3-4,4.3H39l1.1-7.3H41.5z M41.5,31.7h-2.1l-1.3,8.8h2.4
	c2.9,0,4.8-2,4.8-5C45.3,33,43.9,31.7,41.5,31.7"/>
<polygon class="st0" points="47,31.7 45.7,40.5 46.5,40.5 47.8,31.7 "/>
<path class="st0" d="M51.5,35.5c-1.4-0.4-1.9-0.8-1.9-1.5c0-1.1,0.7-1.7,1.9-1.7s1.8,0.5,1.9,1.5v0.1h0.8v-0.1
	c-0.1-1.4-1-2.2-2.6-2.2s-2.7,1-2.7,2.4c0,1.3,0.9,1.8,2.4,2.2c1.5,0.4,1.9,0.8,1.9,1.7c0,0.5-0.2,1-0.5,1.3
	c-0.4,0.4-0.9,0.6-1.6,0.6c-1.4,0-2.2-0.7-2.3-1.9v-0.1H48v0.1c0,1.6,1.2,2.6,3,2.6s3-1.1,3-2.7C53.9,36.5,53,36,51.5,35.5"/>
<path class="st0" d="M61.1,37.6c-0.4,1.4-1.5,2.3-2.9,2.3c-1.8,0-2.9-1.2-2.9-3.2c0-2.6,1.5-4.4,3.6-4.4c1.3,0,2.2,0.7,2.4,2.1v0.1
	h0.8v-0.1c-0.2-1.7-1.4-2.8-3.1-2.8c-2.5,0-4.4,2.2-4.4,5.1c0,2.4,1.4,3.9,3.7,3.9c1.8,0,3.2-1.1,3.6-2.9v-0.1H61.1L61.1,37.6z"/>
<path class="st0" d="M67.1,31.6c-2.5,0-4.5,2.2-4.5,4.9c0,2.4,1.6,4,3.8,4c2.5,0,4.4-2.2,4.4-5C70.9,33.2,69.3,31.6,67.1,31.6"/>
<polygon class="st0" points="77.3,31.7 73.5,39.4 72,31.7 71.2,31.7 72.9,40.5 73.8,40.5 78.1,31.7 "/>
<polygon class="st0" points="83.6,32.4 83.7,31.7 78.9,31.7 77.5,40.5 82.6,40.5 82.8,39.7 78.5,39.7 79,36.3 82.3,36.3 82.4,35.6 
	79.1,35.6 79.6,32.4 "/>
<path class="st0" d="M87.2,32.4c0.7,0,1.2,0.2,1.5,0.5c0.2,0.2,0.4,0.6,0.4,1c0,1.3-0.7,1.9-2.3,1.9h-1.6l0.5-3.4H87.2z M89.8,33.9
	c0-0.6-0.2-1.1-0.5-1.5c-0.5-0.5-1.2-0.7-2.1-0.7H85l-1.3,8.8h0.8l0.6-3.9h1.5l2,3.9h0.9l-2.1-4C89,36.3,89.8,35.4,89.8,33.9"/>
<polygon class="st0" points="44.8,41.8 40.8,49.1 39,41.9 39,41.8 38,41.8 36.6,50.6 37.4,50.6 38.5,43.2 40.4,50.6 40.7,50.6 
	44.9,43.2 43.8,50.6 44.6,50.6 45.9,41.8 "/>
<path class="st0" d="M50.9,41.7c-2.5,0-4.5,2.2-4.5,4.9c0,2.4,1.6,4,3.8,4c2.5,0,4.4-2.2,4.4-5C54.7,43.4,53.1,41.7,50.9,41.7"/>
<path class="st0" d="M58.7,45.6c-1.4-0.4-1.9-0.8-1.9-1.5c0-1.1,0.7-1.7,1.9-1.7s1.8,0.5,1.9,1.5V44h0.8v-0.1
	c-0.1-1.4-1-2.2-2.6-2.2s-2.7,1-2.7,2.4c0,1.3,0.9,1.8,2.4,2.2c1.5,0.4,1.9,0.8,1.9,1.7c0,0.5-0.2,1-0.5,1.3
	c-0.4,0.4-0.9,0.6-1.6,0.6c-1.4,0-2.2-0.7-2.3-1.9v-0.1h-0.8V48c0,1.6,1.2,2.6,3,2.6s3-1.1,3-2.7C61.1,46.6,60.3,46.1,58.7,45.6"/>
<path class="st0" d="M68.6,47.7c-0.4,1.4-1.5,2.3-2.9,2.3c-1.8,0-2.9-1.2-2.9-3.2c0-2.6,1.5-4.4,3.6-4.4c1.3,0,2.2,0.7,2.4,2.1v0.1
	h0.8v-0.1c-0.2-1.7-1.4-2.8-3.1-2.8c-2.5,0-4.4,2.2-4.4,5.1c0,2.4,1.4,3.9,3.7,3.9c1.8,0,3.2-1.1,3.6-2.9v-0.1H68.6L68.6,47.7z"/>
<path class="st0" d="M74.6,41.7c-2.5,0-4.5,2.2-4.5,4.9c0,2.4,1.6,4,3.8,4c2.5,0,4.4-2.2,4.4-5C78.4,43.4,76.8,41.7,74.6,41.7"/>
<polygon class="st0" points="88.5,41.8 85.4,49.2 84.4,41.8 83.9,41.8 80.6,49.2 79.9,41.8 79.1,41.8 80,50.6 80.8,50.6 83.9,43.5 
	84.9,50.5 84.9,50.6 85.6,50.6 89.3,41.8 "/>
</svg>
